PathFileType  4	(X/Y/Z) C:\Users\antoi\Documents\MyRepositories\mobilecap\ResultsAnalysis
DataRate	CameraRate	NumFrames	NumMarkers	Units	OrigDataRate	OrigDataStartFrame	OrigNumFrames
100.0	100.0	4	51	mm	100.0	58	231
Frame#	Time	r_knee			r_shank_antsup			r_ankle			r_calc			r_5meta			r_toe			L_knee			L_shank_antsup			L_ankle			L_calc			L_5meta			L_toe			r_sh2			r_sh3			r_sh4			L_sh2			L_sh3			r_thigh1			r_thigh2			r_thigh3			r_thigh4			r_thigh5			L_thigh1			L_thigh2			L_thigh3			L_thigh4			r.ASIS			r.PSIS			L.ASIS			L.PSIS			C7			R_Shoulder			L_Shoulder			R_Sternum			L_Sternum			R_humerus			R_elbow_med			R_elbow_lat			R_forearm			R_wrist_radius			R_wrist_ulna			L_humerus			L_elbow_med			L_elbow_lat			L_forearm			L_wrist_radius			L_wrist_ulna			R_HJC			L_HJC			R_HJC_reg			L_HJC_reg			
		X1	Y1	Z1	X2	Y2	Z2	X3	Y3	Z3	X4	Y4	Z4	X5	Y5	Z5	X6	Y6	Z6	X7	Y7	Z7	X8	Y8	Z8	X9	Y9	Z9	X10	Y10	Z10	X11	Y11	Z11	X12	Y12	Z12	X13	Y13	Z13	X14	Y14	Z14	X15	Y15	Z15	X16	Y16	Z16	X17	Y17	Z17	X18	Y18	Z18	X19	Y19	Z19	X20	Y20	Z20	X21	Y21	Z21	X22	Y22	Z22	X23	Y23	Z23	X24	Y24	Z24	X25	Y25	Z25	X26	Y26	Z26	X27	Y27	Z27	X28	Y28	Z28	X29	Y29	Z29	X30	Y30	Z30	X31	Y31	Z31	X32	Y32	Z32	X33	Y33	Z33	X34	Y34	Z34	X35	Y35	Z35	X36	Y36	Z36	X37	Y37	Z37	X38	Y38	Z38	X39	Y39	Z39	X40	Y40	Z40	X41	Y41	Z41	X42	Y42	Z42	X43	Y43	Z43	X44	Y44	Z44	X45	Y45	Z45	X46	Y46	Z46	X47	Y47	Z47	X48	Y48	Z48	X49	Y49	Z49	X50	Y50	Z50	X51	Y51	Z51	

58	0.57000000	-937.33950	834.02363	-429.06349	-946.68675	731.12686	-436.21647	-1194.18201	488.59828	-455.09593	-1292.29607	474.79541	-503.26873	-1125.82681	365.74337	-419.05133	-1061.57590	375.49982	-481.93001	-1016.62648	829.31532	-762.66487	-1041.65536	742.36769	-778.88624	-1228.42146	463.15806	-705.14051	-1319.27516	432.46014	-643.52948	-1141.29276	359.15262	-732.90753	-1077.83505	375.28027	-669.95312	-1022.57540	649.08947	-411.78631	-988.34117	780.71585	-395.95330	-1079.65426	706.88125	-390.50118	-1116.70515	790.84516	-768.66947	-1169.54638	681.75151	-755.39062	-867.60234	1157.45649	-418.05276	-859.51831	1048.19495	-422.45363	-910.71622	1018.19425	-392.00340	-979.30203	1144.84794	-406.50703	-962.83264	1030.78725	-407.69713	-902.97242	1105.38698	-787.34468	-912.23308	965.44350	-776.78233	-1012.96392	1112.22948	-791.60855	-1027.20846	975.61827	-782.21905	-856.98136	1363.58456	-476.04892	-1036.33373	1399.73636	-541.94771	-859.49813	1348.08245	-725.49218	-1038.16167	1398.28357	-654.49226	-855.86137	1922.74326	-615.05047	-820.38114	1868.55168	-456.81133	-811.98116	1857.14679	-767.97469	-753.35656	1808.38033	-578.96890	-751.51066	1804.09138	-633.13572	-779.01189	1759.39692	-353.83694	-766.63385	1548.02077	-298.57286	-766.19617	1610.07048	-232.76605	-604.87256	1656.09419	-267.96720	-530.35131	1691.78791	-312.60530	-521.30487	1661.68176	-278.54768	-778.75306	1763.43013	-860.39071	-697.70359	1522.65486	-853.67712	-672.70073	1572.80020	-919.89697	-598.76632	1595.97768	-903.19210	-436.88141	1614.02666	-835.27541	-427.85490	1579.47378	-855.61751	-953.86203	1259.57254	-488.80769	-960.79808	1255.67225	-695.61438	-927.19619	1283.91709	-508.92553	-929.87010	1281.78788	-673.84886	
59	0.58000000	-923.32514	845.75773	-428.43142	-933.37811	743.45449	-434.88534	-1179.76279	500.79419	-453.56524	-1277.86065	494.61787	-502.07090	-1120.90844	371.13307	-418.84576	-1056.24539	376.02983	-481.37567	-1006.87083	840.93106	-763.10902	-1033.61148	754.48291	-779.86767	-1219.00568	474.39144	-706.24866	-1310.48436	449.14146	-644.93451	-1138.03448	361.91073	-733.09206	-1074.33778	375.08048	-670.15932	-1009.21813	661.56196	-410.16548	-975.12922	793.47487	-395.21382	-1066.45959	719.69207	-389.96930	-1108.51076	803.01371	-768.97693	-1161.29922	693.76093	-755.47391	-853.82853	1168.81628	-416.87344	-845.68038	1059.61728	-420.10037	-897.54680	1029.62142	-391.20806	-965.61649	1156.27639	-407.41392	-949.25515	1042.22627	-407.99402	-889.58281	1115.55588	-787.81104	-900.26796	975.81944	-776.99007	-999.62705	1123.39822	-792.08672	-1015.15070	986.83067	-782.28330	-842.29794	1375.72581	-476.55393	-1021.09098	1410.45658	-543.97462	-843.68707	1358.56204	-725.50311	-1022.66756	1408.98523	-656.74895	-849.16419	1934.99429	-615.86025	-815.47304	1882.43447	-457.21126	-806.63913	1870.79117	-767.24894	-746.51161	1820.85632	-579.42088	-744.41812	1816.55550	-633.60470	-772.61805	1776.38696	-352.55938	-756.83036	1566.00328	-291.98422	-758.28100	1629.92948	-228.01705	-599.68775	1681.84620	-264.19529	-526.93204	1719.87078	-309.53364	-516.56275	1690.67067	-275.13639	-771.46605	1779.42561	-860.98091	-685.15654	1540.17972	-857.35939	-662.13103	1592.13887	-923.20950	-589.76126	1617.88508	-905.74809	-429.76855	1643.44278	-836.43182	-418.75924	1609.35663	-856.48684	-938.91415	1271.25041	-489.32092	-944.53581	1266.05415	-696.14000	-911.55084	1294.84578	-509.46118	-913.85341	1292.69831	-674.12923	
60	0.59000000	-907.70462	857.25526	-427.97354	-918.50630	755.95052	-434.09165	-1163.36509	512.51368	-452.69661	-1260.88701	514.72154	-501.04205	-1115.18654	377.43376	-418.98534	-1050.17698	376.89472	-480.87388	-994.73599	852.23451	-763.22177	-1023.00425	766.54325	-780.55564	-1207.78483	486.28285	-707.36647	-1299.52705	467.11711	-646.38082	-1134.31711	365.94850	-733.37166	-1070.37242	375.46932	-670.29534	-994.07623	674.43909	-408.67205	-960.20294	806.55407	-394.79384	-1051.54544	732.39179	-389.40074	-1097.58632	815.39059	-769.09025	-1150.61753	706.06287	-755.31557	-840.83901	1180.25330	-415.97550	-831.97159	1071.03018	-418.29926	-884.20075	1040.83333	-390.83502	-952.41605	1167.09584	-408.87636	-935.41883	1053.04023	-408.58487	-875.22620	1125.99589	-788.05647	-886.37137	986.34546	-776.69770	-985.25675	1134.06183	-792.41490	-1001.20248	997.48688	-782.37939	-828.27452	1387.50821	-476.69856	-1006.46845	1421.45724	-545.56117	-828.40576	1369.82134	-725.69146	-1007.71421	1419.77203	-658.26635	-841.74162	1946.95741	-616.89313	-809.86145	1895.16514	-458.93239	-800.58701	1883.83036	-767.08266	-739.01673	1833.07181	-580.01628	-736.82113	1828.64938	-634.30574	-766.11867	1792.39021	-351.35405	-747.50770	1583.30612	-286.08879	-751.23676	1648.73428	-223.31750	-595.04515	1705.83508	-259.68506	-523.49052	1745.86194	-305.21981	-512.35792	1717.34802	-270.52040	-764.15827	1794.67742	-861.88802	-672.55743	1556.88901	-860.47312	-652.44807	1610.08885	-926.45330	-581.40466	1638.18310	-908.72168	-423.51124	1670.78849	-837.93919	-410.75294	1637.23698	-857.66974	-924.47532	1282.69819	-489.94394	-928.89304	1277.00273	-696.77953	-896.88382	1306.29641	-509.66474	-898.70524	1303.83282	-674.38537	
61	0.60000000	-890.71035	868.74244	-427.44051	-902.12898	768.25070	-433.53061	-1145.56773	523.95323	-451.73226	-1241.39591	534.77218	-500.04549	-1108.46370	384.70907	-419.09595	-1042.93458	378.88656	-480.51427	-980.14374	863.10088	-763.32504	-1010.10465	778.21818	-781.30543	-1194.77700	498.41836	-708.52539	-1286.47147	486.05862	-647.76727	-1130.11178	371.20912	-733.75129	-1065.81281	376.37373	-670.49636	-977.85524	687.15002	-407.60326	-943.48248	819.57727	-394.05106	-1035.35359	745.14570	-388.77739	-1084.11013	827.49984	-768.85159	-1137.77222	718.41742	-755.06514	-827.84337	1191.54184	-415.37372	-817.95427	1082.35160	-417.38037	-870.21380	1051.84826	-390.70487	-939.43188	1177.29689	-410.55632	-921.10671	1063.37248	-409.41958	-859.93762	1136.35399	-787.94126	-870.92666	996.60919	-776.01331	-969.93002	1144.05498	-792.89557	-985.63391	1007.50059	-783.05177	-815.01614	1398.86145	-476.69801	-992.59003	1432.31389	-546.51755	-813.87241	1381.41866	-726.05747	-993.42011	1430.45929	-658.94867	-833.64743	1958.38629	-617.98844	-803.32303	1907.16093	-460.75951	-793.91356	1896.07841	-767.18485	-730.94719	1844.68729	-580.56788	-728.68008	1840.13870	-635.01268	-759.64404	1807.41204	-350.13675	-738.72901	1599.76888	-280.75613	-745.13027	1666.26172	-219.03149	-590.69345	1727.75695	-254.40887	-519.89476	1769.62238	-299.51825	-508.41940	1741.51904	-264.69230	-756.89443	1808.89224	-862.91643	-661.54766	1572.27611	-864.17297	-643.54094	1626.45659	-929.84569	-573.67459	1656.74117	-912.02651	-418.12550	1695.96632	-839.66089	-403.72570	1662.95309	-859.21252	-910.54358	1293.71948	-490.55644	-914.06453	1288.15598	-697.41251	-883.13701	1317.67621	-509.87012	-884.35320	1314.95489	-674.82497	
